<svg width="50" height="55" viewBox="0 0 50 55" fill="none" xmlns="http://www.w3.org/2000/svg">
    <g id="bot" class="svg-image">
    <path d="M49.9882 41.6083L49.3186 37.4945C49.1904 36.7068 48.7515 36.0469 48.1439 35.6317V30.5458C48.7122 30.0339 49.0719 29.2844 49.0719 28.4501V26.5495C49.0719 25.7152 48.7122 24.9658 48.1439 24.4538V17.1217L48.591 16.8928C48.8856 16.7419 49.0719 16.4334 49.0719 16.096V12.274C49.0719 10.7751 48.2026 9.42506 46.8571 8.83467L43.3416 7.29194C42.7844 7.04735 42.1495 7.10532 41.6433 7.4472C41.1373 7.78896 40.8352 8.36355 40.8352 8.98422V9.50322H35.8418L32.7712 1.75477C32.3547 0.688746 31.3611 0 30.2397 0H19.7602C18.6388 0 17.6453 0.688746 17.2305 1.75061L14.1582 9.50322H9.16482V8.98422C9.16482 8.36343 8.86273 7.78884 8.35658 7.4472C7.85044 7.10544 7.21529 7.04735 6.65833 7.29194L3.1429 8.83479C1.79755 9.42517 0.928058 10.7752 0.928058 12.2741V16.0961C0.928058 16.4336 1.11425 16.7421 1.40903 16.8929L1.85613 17.1218V24.4539C1.2878 24.9659 0.928058 25.7154 0.928058 26.5496V28.4503C0.928058 29.2845 1.2878 30.034 1.85613 30.546V35.6318C1.24847 36.047 0.809612 36.7069 0.681306 37.4946L0.0118179 41.6083C-0.0301773 41.8667 0.0409363 42.1307 0.206249 42.3307C0.371562 42.5306 0.614253 42.6457 0.870053 42.6457H1.33247L2.93026 45.0999C3.09789 45.3574 3.37376 45.4968 3.65497 45.4968C3.82086 45.4968 3.98849 45.4483 4.13675 45.347C4.53652 45.0741 4.64464 44.5209 4.37805 44.1116L3.42388 42.6457H3.65427C3.98385 42.6457 4.28513 42.455 4.43246 42.1532L5.12005 40.7451H5.90079L6.58837 42.1532C6.73582 42.455 7.0371 42.6457 7.36656 42.6457H7.59696L6.64255 44.1116C6.37596 44.5209 6.48408 45.0741 6.88385 45.347C7.03211 45.4483 7.19986 45.4968 7.36563 45.4968C7.64684 45.4968 7.92271 45.3574 8.09034 45.0999L9.68837 42.6457H10.1508C10.4066 42.6457 10.6494 42.5305 10.8147 42.3307C10.98 42.1309 11.0511 41.8667 11.0091 41.6083L10.3395 37.4945C10.2113 36.7068 9.77247 36.0469 9.16482 35.6317V20.8637L10.2089 21.3983V21.798C10.2089 24.9092 12.6809 27.4405 15.7193 27.4405H16.7054V31.5072C15.6277 31.88 14.8493 32.9244 14.8493 34.1522V36.0528C14.8493 37.5921 16.0722 38.8444 17.5755 38.8444H17.6335V42.7051C17.6335 42.9856 17.7624 43.2495 17.9815 43.4178L19.491 44.5771C19.4907 44.5867 19.4896 44.5961 19.4896 44.6057V47.5161H15.9385C14.8991 47.5161 13.9648 48.1074 13.5001 49.0593L11.2289 53.7105C11.0939 53.9867 11.1084 54.3147 11.2669 54.5773C11.4254 54.84 11.7054 54.9999 12.007 54.9999H16.645C16.6455 54.9999 16.646 55 16.6466 55C16.6472 55 16.6479 54.9999 16.6484 54.9999H22.2157C22.6964 54.9999 23.0858 54.601 23.0858 54.109V48.407C23.0858 47.915 22.6964 47.5161 22.2157 47.5161H21.2296V45.4961C21.2484 45.4967 21.2671 45.4984 21.2858 45.4984C21.5596 45.4984 21.8351 45.4337 22.0917 45.3024C22.7048 44.9885 23.0857 44.3575 23.0857 43.6555V38.8444H23.1437C23.6243 38.8444 24.0137 38.4455 24.0137 37.9535V37.8941H25.9279C25.9475 37.8941 25.9666 37.8924 25.9859 37.8911V37.9535C25.9859 38.4455 26.3753 38.8444 26.856 38.8444H26.914V43.6554C26.914 44.3573 27.2948 44.9884 27.9079 45.3023C28.1646 45.4337 28.4401 45.4983 28.7139 45.4983C28.7327 45.4983 28.7513 45.4967 28.77 45.4959V47.5161H27.7839C27.3033 47.5161 26.9139 47.915 26.9139 48.407V54.109C26.9139 54.601 27.3033 54.9999 27.7839 54.9999H33.3513C33.3519 54.9999 33.3526 55 33.3532 55C33.3538 55 33.3542 54.9999 33.3548 54.9999H37.993C38.2946 54.9999 38.5746 54.84 38.7331 54.5773C38.8916 54.3147 38.9061 53.9867 38.7712 53.7105L36.4999 49.0593C36.0352 48.1074 35.1009 47.5161 34.0615 47.5161H30.5104V44.6057C30.5104 44.5961 30.5092 44.5867 30.509 44.5771L32.0185 43.4178C32.2376 43.2495 32.3665 42.9856 32.3665 42.7051V38.8444H32.4245C33.9278 38.8444 35.1507 37.5921 35.1507 36.0528V34.1522C35.1507 32.9244 34.3723 31.88 33.2946 31.5072V27.4405H34.2807C37.3191 27.4405 39.7911 24.9092 39.7911 21.798V21.3983L40.8352 20.8637V35.6317C40.2275 36.0469 39.7887 36.7068 39.6604 37.4945L38.9909 41.6082C38.9489 41.8665 39.02 42.1306 39.1853 42.3305C39.3506 42.5305 39.5933 42.6457 39.8491 42.6457H40.3115L41.9093 45.0999C42.0769 45.3574 42.3528 45.4968 42.634 45.4968C42.7999 45.4968 42.9675 45.4483 43.1158 45.347C43.5156 45.0741 43.6237 44.5209 43.3571 44.1116L42.4029 42.6457H42.6333C42.9629 42.6457 43.2642 42.455 43.4115 42.1532L44.0991 40.7451H44.8798L45.5674 42.1532C45.7149 42.455 46.016 42.6457 46.3456 42.6457H46.576L45.6216 44.1116C45.355 44.5209 45.4631 45.0741 45.8629 45.347C46.0112 45.4483 46.1789 45.4968 46.3447 45.4968C46.6259 45.4968 46.9018 45.3574 47.0694 45.0999L48.6674 42.6457H49.1298C49.3856 42.6457 49.6284 42.5305 49.7938 42.3307C49.9591 42.1309 50.0302 41.8667 49.9882 41.6083ZM18.8446 2.41655C18.9952 2.03096 19.3546 1.78185 19.7603 1.78185H30.2398C30.6454 1.78185 31.0049 2.03096 31.1571 2.42071L32.834 6.65225H17.166L18.8446 2.41655ZM16.4675 8.41486C16.5255 8.42734 16.5857 8.43411 16.6473 8.43411H33.3526C33.4143 8.43411 33.4744 8.42734 33.5325 8.41486L33.9639 9.50322H24.9999H16.036L16.4675 8.41486ZM21.8757 18.9086C21.685 19.2294 21.5409 19.5822 21.4512 19.9566H19.4411C19.582 19.0319 19.9389 18.1799 20.4564 17.4552L21.8757 18.9086ZM21.687 16.1951C22.3947 15.6652 23.2269 15.2997 24.13 15.1555V17.2138C23.7643 17.3056 23.4198 17.4531 23.1063 17.6484L21.687 16.1951ZM21.4512 21.7385C21.5409 22.113 21.6851 22.466 21.8758 22.7869L20.4566 24.2403C19.939 23.5155 19.582 22.6634 19.4413 21.7385H21.4512ZM23.1062 24.0468C23.4197 24.2421 23.7642 24.3897 24.1299 24.4815V26.5398C23.2267 26.3955 22.3946 26.03 21.6868 25.5001L23.1062 24.0468ZM23.0858 20.8477C23.0858 19.7669 23.9445 18.8876 24.9999 18.8876C26.0554 18.8876 26.9141 19.7669 26.9141 20.8477C26.9141 21.9284 26.0554 22.8077 24.9999 22.8077C23.9445 22.8077 23.0858 21.9284 23.0858 20.8477ZM26.8938 17.6485C26.5803 17.4533 26.2358 17.3057 25.8701 17.2139V15.1556C26.7733 15.2998 27.6054 15.6653 28.3132 16.1953L26.8938 17.6485ZM29.5436 17.4552C30.0611 18.1799 30.418 19.032 30.5589 19.9566H28.5488C28.4591 19.5822 28.315 19.2294 28.1243 18.9086L29.5436 17.4552ZM25.87 24.4816C26.2357 24.3898 26.5802 24.2422 26.8937 24.0469L28.3129 25.5003C27.6052 26.0303 26.773 26.3958 25.8699 26.54V24.4816H25.87ZM28.1243 22.7868C28.315 22.4658 28.4591 22.1129 28.5489 21.7385H30.559C30.4181 22.6634 30.0612 23.5155 29.5437 24.2402L28.1243 22.7868ZM29.8815 15.2052C28.5807 14.0239 26.8713 13.3045 25.0001 13.3045C23.1288 13.3045 21.4193 14.0239 20.1186 15.2052H18.5034C17.9597 15.2052 17.5174 14.7522 17.5174 14.1954V11.2851H24.9999H32.4825V14.1954C32.4825 14.7522 32.0402 15.2052 31.4965 15.2052H29.8815ZM2.66819 26.5496C2.66819 25.9928 3.11054 25.5399 3.65427 25.5399H7.42457V29.46H3.65427C3.11054 29.46 2.66819 29.007 2.66819 28.4503V26.5496ZM3.59627 23.7596V18.0129L7.42457 19.9729V23.758H3.65427C3.6349 23.758 3.61564 23.7591 3.59627 23.7596ZM7.42457 31.2418V35.1619H3.59627V31.2403C3.61564 31.2406 3.63478 31.2418 3.65427 31.2418H7.42457ZM7.90426 40.8638L7.21668 39.4557C7.06935 39.1539 6.76807 38.9632 6.43849 38.9632H4.58234C4.25276 38.9632 3.95149 39.1539 3.80415 39.4557L3.11669 40.8638H1.8972L2.39778 37.7875C2.47748 37.2986 2.88652 36.9438 3.37051 36.9438H7.65044C8.13443 36.9438 8.54347 37.2986 8.62306 37.7875L9.12375 40.8638H7.90426ZM10.2088 19.4062L2.66819 15.5455V12.2741C2.66819 11.489 3.12365 10.7818 3.82828 10.4725L7.34382 8.92982C7.35403 8.9253 7.37271 8.91723 7.3987 8.93481C7.4248 8.95239 7.4248 8.97318 7.4248 8.98434L7.42457 13.4082C7.42457 14.1539 7.70809 14.855 8.22306 15.3821L9.91992 17.1197C10.1062 17.3104 10.2088 17.564 10.2088 17.8337V19.4062V19.4062ZM15.7192 25.6587C13.6402 25.6587 11.9489 23.9267 11.9489 21.798V20.8477V17.8336C11.9489 17.088 11.6654 16.3869 11.1504 15.8597L9.45357 14.1221C9.26725 13.9315 9.1647 13.6779 9.1647 13.4081V11.2851H15.7772V14.1954C15.7772 15.7347 17.0002 16.987 18.5034 16.987H18.6745C18.0142 18.1172 17.6335 19.4373 17.6334 20.8473V20.8474V20.8476C17.6334 22.6747 18.2714 24.3519 19.3308 25.6586H15.7192V25.6587ZM21.3457 53.218H18.273L18.9519 52.1753C18.9627 52.1588 18.9807 52.1489 19.0001 52.1489H21.3457V53.218ZM21.3457 49.2979V50.3671H19.0001C18.3975 50.3671 17.8381 50.6737 17.504 51.187L16.1817 53.218H13.4148L15.0563 49.856C15.2244 49.5118 15.5624 49.2979 15.9384 49.2979H21.3457ZM21.3457 43.6554C21.3457 43.6718 21.3457 43.6921 21.3136 43.7085C21.2817 43.7248 21.2658 43.7128 21.253 43.7029L19.3735 42.2596V38.8444H21.3457V43.6554ZM22.2737 37.0626H17.5754C17.0316 37.0626 16.5893 36.6096 16.5893 36.0528V34.1522C16.5893 33.5954 17.0316 33.1425 17.5754 33.1425H20.3596C21.415 33.1425 22.2737 34.0218 22.2737 35.1025V37.0626ZM25.986 35.1025V36.1152C25.9668 36.1139 25.9476 36.1122 25.928 36.1122H24.0139V35.1025C24.0139 34.7527 23.9657 34.4142 23.8776 34.0928H26.1222C26.0343 34.4142 25.986 34.7527 25.986 35.1025ZM27.2104 32.3109H22.7896C22.1433 31.7204 21.2919 31.3606 20.3597 31.3606H18.4454V27.4405H21.2878C21.3292 27.4405 21.3697 27.4365 21.4096 27.4308C22.4727 28.0411 23.6969 28.3909 24.9999 28.3909C26.303 28.3909 27.5272 28.0411 28.5903 27.4308C28.6302 27.4365 28.6707 27.4405 28.7121 27.4405H31.5545V31.3606H29.6403C28.7081 31.3606 27.8567 31.7204 27.2104 32.3109ZM28.6542 53.218V52.1489H30.9998C31.0192 52.1489 31.0372 52.1588 31.0481 52.1754L31.727 53.218H28.6542ZM34.0616 49.2979C34.4375 49.2979 34.7754 49.5118 34.9437 49.8561L36.5852 53.218H33.8184L32.4961 51.1871C32.1618 50.6737 31.6025 50.3671 30.9999 50.3671H28.6542V49.2979H34.0616ZM30.6264 42.2596L28.747 43.7029C28.7342 43.7127 28.7184 43.7248 28.6864 43.7085C28.6542 43.6921 28.6542 43.6718 28.6542 43.6554V38.8444H30.6264V42.2596ZM33.4106 34.1522V36.0528C33.4106 36.6096 32.9683 37.0626 32.4245 37.0626H27.7262V35.1025C27.7262 34.0218 28.5849 33.1425 29.6403 33.1425H32.4245C32.9683 33.1425 33.4106 33.5954 33.4106 34.1522ZM38.8495 15.8597C38.3346 16.3869 38.051 17.088 38.051 17.8336V20.8477V21.798C38.051 23.9267 36.3597 25.6587 34.2807 25.6587H30.6691C31.7285 24.352 32.3665 22.6748 32.3665 20.8477C32.3665 20.8477 32.3665 20.8477 32.3665 20.8476V20.8474C32.3665 19.4374 31.9858 18.1172 31.3253 16.987H31.4965C32.9997 16.987 34.2227 15.7347 34.2227 14.1954V11.2851H40.8352V13.4082C40.8352 13.678 40.7326 13.9315 40.5463 14.1223L38.8495 15.8597ZM39.7911 19.4062V17.8337C39.7911 17.564 39.8937 17.3105 40.08 17.1197L41.7768 15.3821C42.2917 14.855 42.5753 14.1539 42.5753 13.4082V8.98422C42.5753 8.97306 42.5753 8.95227 42.6014 8.93469C42.6274 8.91711 42.6461 8.92519 42.6563 8.9297L46.1716 10.4725C46.8762 10.7819 47.3317 11.489 47.3317 12.2741V15.5455L39.7911 19.4062ZM46.3456 29.46H42.5753V25.5399H46.3456C46.8894 25.5399 47.3317 25.9928 47.3317 26.5496V28.4503C47.3317 29.007 46.8894 29.46 46.3456 29.46ZM46.4036 31.2403V35.1619H42.5753V31.2418H46.3456C46.3651 31.2418 46.3844 31.2408 46.4036 31.2403ZM42.5753 23.758V19.9728L46.4036 18.0128V23.7595C46.3842 23.7591 46.3651 23.7579 46.3456 23.7579H42.5753V23.758ZM46.8833 40.8638L46.1957 39.4557C46.0483 39.1539 45.7471 38.9632 45.4175 38.9632H43.5614C43.2318 38.9632 42.9305 39.1539 42.7832 39.4557L42.0957 40.8638H40.8763L41.3768 37.7875C41.4565 37.2986 41.8656 36.9438 42.3496 36.9438H46.6295C47.1135 36.9438 47.5225 37.2986 47.6021 37.7875L48.1028 40.8638H46.8833Z" fill="white"/>
<path d="M28.7126 3.8013H21.288C20.8074 3.8013 20.418 4.2002 20.418 4.69223C20.418 5.18426 20.8074 5.58315 21.288 5.58315H28.7126C29.1932 5.58315 29.5827 5.18426 29.5827 4.69223C29.5827 4.2002 29.1932 3.8013 28.7126 3.8013Z" fill="white"/>
</g>
</svg>
